<?xml version="1.0" encoding="utf-8"?><!-- Uploaded to: SVG Repo, www.svgrepo.com, Generator: SVG Repo Mixer Tools --><svg width="800px" height="800px" viewBox="0 0 64 64" fill="none" xmlns="http://www.w3.org/2000/svg"><path fill-rule="evenodd" clip-rule="evenodd" d="M22.8359 39.5247L17.3666 41.8756L22.5348 54.1302L28.0542 51.7543L22.8359 39.5247Z" fill="#2A2941"/><path fill-rule="evenodd" clip-rule="evenodd" d="M30.0361 31.0215L24.592 33.4474L31.717 50.3038L37.2113 47.8529L30.0361 31.0215Z" fill="#2A2941"/><path fill-rule="evenodd" clip-rule="evenodd" d="M36.6092 21.0676L31.2404 23.5436L40.8742 46.4023L46.3435 43.9013L36.6092 21.0676Z" fill="#2A2941"/><path fill-rule="evenodd" clip-rule="evenodd" d="M22.3842 19.3419C18.5708 25.019 14.3058 31.7466 14.3058 31.7466L17.7931 34.0475C17.7931 34.0475 23.9146 23.9186 25.8715 21.3426L28.8319 22.9933V13.1145L19.6496 17.6912L22.3842 19.3419Z" fill="#2A2941"/><path fill-rule="evenodd" clip-rule="evenodd" d="M24.7174 34.6228L19.3486 36.9737L24.4164 49.2534L29.7853 46.8525L24.7174 34.6228Z" fill="#FEC34E"/><path fill-rule="evenodd" clip-rule="evenodd" d="M31.8425 47.6277L25.5454 32.572L17.3917 36.1734L23.6387 51.2541L31.8425 47.6277ZM24.7175 34.6228L19.3486 36.9737L24.4164 49.2534L29.7853 46.8525L24.7175 34.6228Z" fill="#2A2941"/><path fill-rule="evenodd" clip-rule="evenodd" d="M31.7672 26.0945L26.3984 28.5204L33.398 45.4018L38.7669 42.9509L31.7672 26.0945Z" fill="#31CEA8"/><path fill-rule="evenodd" clip-rule="evenodd" d="M40.799 43.7012L32.57 24.0437L24.4916 27.7201L32.6453 47.4276L40.799 43.7012ZM31.7672 26.0945L26.3983 28.5204L33.3979 45.4018L38.7668 42.9509L31.7672 26.0945Z" fill="#2A2941"/><path fill-rule="evenodd" clip-rule="evenodd" d="M38.24 16.1658L32.9213 18.6417L42.4046 41.5504L47.7735 39.0245L38.24 16.2158V16.1658Z" fill="#4C5EFD"/><path fill-rule="evenodd" clip-rule="evenodd" d="M49.7555 39.7746L38.9926 14.0898L30.9142 17.8663L41.5767 43.5761L49.7555 39.7746ZM38.2149 16.1656L32.8962 18.6416L42.4046 41.5503L47.7735 39.0243L38.24 16.2157L38.2149 16.1656Z" fill="#2A2941"/><path fill-rule="evenodd" clip-rule="evenodd" d="M22.8108 16.891C18.6461 23.3685 14.6571 29.0457 14.6571 29.0457L18.4454 31.6466C18.4454 31.6466 24.4666 22.093 26.5991 19.1669L29.8104 21.0176V9.78833L19.8253 15.0403L22.8108 16.891Z" fill="#7772EE"/><path fill-rule="evenodd" clip-rule="evenodd" d="M22.8108 16.891C18.6461 23.3685 14.6571 29.0457 14.6571 29.0457L18.4454 31.6466C18.4454 31.6466 24.4666 22.093 26.5991 19.1669L29.8104 21.0176V9.78833L19.8253 15.0403L22.8108 16.891ZM23.7139 17.4662L24.3161 16.5659L21.9829 15.1404L28.7818 11.539V19.1669L26.3482 17.8164L25.7712 18.5917C24.0401 20.9676 19.7249 27.6951 18.1695 30.1961L16.1624 28.8456C17.4168 26.8948 20.5277 22.3931 23.7139 17.4412V17.4662Z" fill="#2A2941"/></svg>
